<?xml version="1.0" encoding="UTF-8"?>
<svg width="105px" height="90px" viewBox="0 0 105 90" version="1.1" xmlns="http://www.w3.org/2000/svg" xmlns:xlink="http://www.w3.org/1999/xlink">
    <!-- Generator: Sketch 44.1 (41455) - http://www.bohemiancoding.com/sketch -->
    <title>Untitled 2</title>
    <desc>Created with Sketch.</desc>
    <defs></defs>
    <g id="Page-1" stroke="none" stroke-width="1" fill="none" fill-rule="evenodd">
        <path d="M65.9679618,56 C73.0163599,64.6934788 75.2809967,82.5091267 75.2809967,82.5091267 C81.267515,79.013709 86.7124896,72.5220026 86.7124896,72.5220026 C86.7124896,72.5220026 81.2023782,60.3285617 65.9679618,56 Z M64.5129895,80.4535333 C68.2507763,76.3991517 70.1177763,67.2406271 70.1177763,67.2406271 C70.1177763,67.2406271 64.7190033,63.4778459 56.5761569,63.2756192 C63.778308,70.3656745 64.5129895,80.4535333 64.5129895,80.4535333 Z M87.7917897,72.0334772 C87.7917897,72.0334772 95.6377338,77.1929107 98.6847686,82.2304022 C98.6847686,82.2304022 103.060289,76.2491858 105,69.1144437 C98.8438234,66.9778081 87.7917897,72.0334772 87.7917897,72.0334772 Z M45,67.7185488 C51.5394229,71.40256 53.2413088,79.4863289 53.2413088,79.4863289 C58.6082708,75.4864803 58.6241763,69.5234416 58.6241763,69.5234416 C58.6241763,69.5234416 51.1584488,66.6846929 45,67.7185488 Z" id="Shape" fill="#DBD9DC" fill-rule="nonzero"></path>
        <rect id="Rectangle" fill="#D8D8D8" x="0" y="30.375" width="58.15625" height="5.90625"></rect>
        <rect id="Rectangle" fill="#ECE8EE" x="12.1158854" y="37.96875" width="33.9244792" height="3.375"></rect>
        <path d="M13.7463778,25.6223437 C13.4160241,16.1976474 18.5274896,11.5969503 29.0807745,11.8202525 C39.6340594,12.0435546 44.7436457,16.6442517 44.4095333,25.6223437" id="Path-2" stroke="#ECE8EE" stroke-width="4" style="mix-blend-mode: multiply;"></path>
        <rect id="Rectangle-2" fill="#D8D8D8" x="25.8472222" y="0" width="5.65407986" height="89.5"></rect>
        <rect id="Rectangle" fill="#ECE8EE" x="12.1158854" y="25.3125" width="33.9244792" height="3.375"></rect>
        <path d="M44.4098722,37.96875 C44.7402259,50.0611271 39.6287604,55.9640615 29.0754755,55.6775532 C18.5221906,55.3910449 13.4126043,49.4881105 13.7467167,37.96875" id="Path-2" stroke="#ECE8EE" stroke-width="4"></path>
    </g>
</svg>
