<?xml version="1.0" encoding="UTF-8"?>
<svg width="85px" height="95px" viewBox="0 0 85 95" version="1.1" xmlns="http://www.w3.org/2000/svg" xmlns:xlink="http://www.w3.org/1999/xlink">
    <!-- Generator: Sketch 44.1 (41455) - http://www.bohemiancoding.com/sketch -->
    <title>all@400x</title>
    <desc>Created with Sketch.</desc>
    <defs></defs>
    <g id="Page-1" stroke="none" stroke-width="1" fill="none" fill-rule="evenodd">
        <path d="M13.182913,78 C16.9420586,82.4617719 18.1498649,91.6053335 18.1498649,91.6053335 C21.3426746,89.8113731 24.2466611,86.4796213 24.2466611,86.4796213 C24.2466611,86.4796213 21.3079351,80.2215566 13.182913,78 Z M12.4069277,90.550337 C14.400414,88.4694985 15.3961473,83.7690501 15.3961473,83.7690501 C15.3961473,83.7690501 12.5168017,81.8378702 8.17395036,81.7340809 C12.0150976,85.3729246 12.4069277,90.550337 12.4069277,90.550337 Z M24.8222879,86.2288944 C24.8222879,86.2288944 29.0067914,88.876881 30.6318766,91.4622831 C30.6318766,91.4622831 32.9654876,88.3925311 34,84.7307528 C30.7167058,83.6341629 24.8222879,86.2288944 24.8222879,86.2288944 Z M2,84.0143348 C5.48769219,85.9050875 6.39536469,90.0539367 6.39536469,90.0539367 C9.25774445,88.0010863 9.26622737,84.9406637 9.26622737,84.9406637 C9.26622737,84.9406637 5.28450605,83.4837268 2,84.0143348 Z" id="Shape" fill="#9B9B9B" fill-rule="nonzero"></path>
        <path d="M13,33 C26.8210416,33.9628906 37.1543749,34.4443359 44,34.4443359 C50.8456251,34.4443359 61.1789584,33.9628906 75,33 L75,40.9099998 C61.0933563,40.2433332 50.760023,39.9099998 44,39.9099998 C37.239977,39.9099998 26.9066437,40.2433332 13,40.9099998 L13,33 Z" id="Rectangle" fill="#4A4A4A"></path>
        <rect id="Rectangle" fill="#9B9B9B" x="28" y="42" width="33" height="3"></rect>
        <polygon id="Rectangle-2" fill="#4A4A4A" points="40 6 47.8535156 6 46.8645833 92.5 41.2105035 92.5"></polygon>
        <rect id="Rectangle" fill="#9B9B9B" x="28" y="29" width="32.5999985" height="3"></rect>
        <path d="M59.1852017,42 C59.5102431,51.4421711 54.4809736,56.0513985 44.0973934,55.8276824 C33.7138132,55.6039662 28.6863929,50.9947388 29.0151325,42" id="Path-2" stroke="#9B9B9B" stroke-width="3"></path>
        <path d="M29.002179,31.8354492 C28.901593,22.6118164 32.283429,18 39.1476868,18" id="Path-3" stroke="#9B9B9B" stroke-width="3"></path>
        <path d="M49.002179,31.8354492 C48.901593,22.6118164 52.283429,18 59.1476868,18" id="Path-3" stroke="#9B9B9B" stroke-width="3" transform="translate(54.073843, 24.917725) scale(-1, 1) translate(-54.073843, -24.917725) "></path>
    </g>
</svg>