<?xml version="1.0" encoding="UTF-8"?>
<svg width="397px" height="480px" viewBox="0 0 397 480" version="1.1" xmlns="http://www.w3.org/2000/svg" xmlns:xlink="http://www.w3.org/1999/xlink">
    <!-- Generator: Sketch 44.1 (41455) - http://www.bohemiancoding.com/sketch -->
    <title>all@400x</title>
    <desc>Created with Sketch.</desc>
    <defs></defs>
    <g id="Page-1" stroke="none" stroke-width="1" fill="none" fill-rule="evenodd">
        <path d="M82.7637679,389 C101.508806,411.316022 107.53155,457.048508 107.53155,457.048508 C123.452545,448.075826 137.933318,431.411719 137.933318,431.411719 C137.933318,431.411719 123.279316,400.111349 82.7637679,389 Z M78.8943054,451.771832 C88.8348557,441.364299 93.8000952,417.854512 93.8000952,417.854512 C93.8000952,417.854512 79.4421939,408.195512 57.7864986,407.676399 C76.9404384,425.876459 78.8943054,451.771832 78.8943054,451.771832 Z M140.80369,430.157682 C140.80369,430.157682 161.669781,443.401866 169.773294,456.333027 C169.773294,456.333027 181.409881,440.979339 186.568493,422.664569 C170.196296,417.179859 140.80369,430.157682 140.80369,430.157682 Z M27,419.081329 C44.3914309,428.538127 48.9175538,449.289034 48.9175538,449.289034 C63.1908546,439.021486 63.2331548,423.71446 63.2331548,423.71446 C63.2331548,423.71446 43.37824,416.427437 27,419.081329 Z" id="Shape" fill="#9B9B9B" fill-rule="nonzero"></path>
        <path d="M65.8516695,159.043343 C134.770506,163.859342 186.297832,166.267342 220.433647,166.267342 C254.569462,166.267342 306.096788,163.859342 375.015625,159.043343 L375.015625,198.606041 C305.669932,195.271637 254.142606,193.604435 220.433647,193.604435 C186.724688,193.604435 135.197363,195.271637 65.8516695,198.606041 L65.8516695,159.043343 Z" id="Rectangle" fill="#4A4A4A"></path>
        <rect id="Rectangle" fill="#9B9B9B" x="140.649401" y="204.057791" width="164.555009" height="15.0048159"></rect>
        <polygon id="Rectangle-2" fill="#4A4A4A" points="200.487586 24 239.649262 24 234.717936 456.638859 206.52378 456.638859"></polygon>
        <rect id="Rectangle" fill="#9B9B9B" x="140.649401" y="139.036922" width="162.560395" height="15.0048159"></rect>
        <path d="M298.560941,204.057791 C300.207673,251.283804 274.728263,274.337341 222.122709,273.218401 C169.517155,272.099461 144.047112,249.045924 145.712581,204.057791" id="Path-2" stroke="#9B9B9B" stroke-width="15"></path>
        <path d="M145.646782,153.21872 C145.145208,107.085749 162.008785,84.0192637 196.237513,84.0192637" id="Path-3" stroke="#9B9B9B" stroke-width="15"></path>
        <path d="M295.956955,153.21872 C296.458529,107.085749 279.594952,84.0192637 245.366224,84.0192637" id="Path-3" stroke="#9B9B9B" stroke-width="15"></path>
    </g>
</svg>